[img]http://i.imgrz.com/cfE8.jpg[/img]
[code]

End.of.Watch.2012.DVDRIP.XVID.AC3.5.1-26K
 
http://uk.imdb.com/title/tt1855199/

Plot:
Two young officers are marked for death after confiscating a small cache of money and firearms from the members 

of a notorious cartel, during a routine traffic stop.

Sources - Audio-lum....Thanks :P
          VIDEO-lum.....Thanks :P
Video
ID                                       : 0
Format                                   : MPEG-4 Visual
Format profile                           : Advanced Simple@L5
Format settings, BVOP                    : 2
Format settings, QPel                    : No
Format settings, GMC                     : No warppoints
Format settings, Matrix                  : Default (H.263)
Muxing mode                              : Packed bitstream
Codec ID                                 : XVID
Codec ID/Hint                            : XviD
Duration                                 : 1h 44mn
Bit rate                                 : 1 665 Kbps
Width                                    : 720 pixels
Height                                   : 400 pixels
Display aspect ratio                     : 16:9
Frame rate                               : 25.000 fps
Color space                              : YUV
Chroma subsampling                       : 4:2:0
Bit depth                                : 8 bits
Scan type                                : Progressive
Compression mode                         : Lossy
Bits/(Pixel*Frame)                       : 0.231
Stream size                              : 1.21 GiB (81%)
Writing library                          : XviD 64

Audio
ID                                       : 1
Format                                   : AC-3
Format/Info                              : Audio Coding 3
Mode extension                           : CM (complete main)
Format settings, Endianness              : Big
Codec ID                                 : 2000
Duration                                 : 1h 44mn
Bit rate mode                            : Constant
Bit rate                                 : 384 Kbps
Channel(s)                               : 6 channels
Channel positions                        : Front: L C R, Side: L R, LFE
Sampling rate                            : 48.0 KHz
Bit depth                                : 16 bits
Compression mode                         : Lossy
Stream size                              : 286 MiB (19%)
Alignment                                : Split accross interleaves
Interleave, duration                     : 5458 ms (136.45 video frames)

Notes -
enjoy

[/code]

Screens:
[IMG]http://i.imgur.com/Cnymg.png[/IMG]
[IMG]http://i.imgur.com/H1e7J.png[/IMG]
[IMG]http://i.imgur.com/35dOT.png[/IMG]
[IMG]http://s10.postimage.org/glt9js9k9/vlcsnap_2012_11_12_09h00m22s149.png[/IMG]
[IMG]http://s10.postimage.org/4xz7p8kfd/vlcsnap_2012_11_12_10h07m25s86.png[/IMG]
[IMG]http://s10.postimage.org/xc98muxd5/vlcsnap_2012_11_12_10h08m17s96.png[/IMG]
[IMG]http://s10.postimage.org/yftcyti09/vlcsnap_2012_11_12_10h08m23s171.png[/IMG]

Greetz:
XtremeEncode|FYA|ILLUMANTI|CM8||meggafast|RX|VISION|HDSCENE|xTriLL|DTRG|CRYS|REMIXHD|BIDA|RX|REFILL|INSPiRAL|

AXED|HOPE|Anonymous|GooN|NOIR|Blackjesus|Gabroo Punjab Deh|UNiQUE|DQ1|RESiSTANCE|HS||LEGION|STN|BOBBYBLUE

To all the people who have helped me  you know who you are

Anything to offer email us @: 26k@hushmail.me
<<bullying has to be stopped now!>>